<?xml version="1.0" encoding="utf-8"?>
<!-- Generator: Adobe Illustrator 18.1.1, SVG Export Plug-In . SVG Version: 6.00 Build 0)  -->
<svg version="1.1" id="Layer_1" xmlns="http://www.w3.org/2000/svg" xmlns:xlink="http://www.w3.org/1999/xlink" x="0px" y="0px"
	 width="250px" height="100px" viewBox="0 0 250 100" enable-background="new 0 0 250 100" xml:space="preserve">
<g>
	<path fill-rule="evenodd" clip-rule="evenodd" fill="#FFFFFF" d="M233.5,40c2.5,0,4.6-1.9,4.6-4.5c0-2.6-2.1-4.5-4.6-4.5
		c-2.5,0-4.6,1.9-4.6,4.5C228.9,38,231,40,233.5,40 M229.8,35.4c0-2.1,1.6-3.8,3.7-3.8c2.1,0,3.7,1.6,3.7,3.8c0,2.2-1.6,3.8-3.7,3.8
		C231.4,39.2,229.8,37.6,229.8,35.4 M232.5,35.8h0.9l1.4,2.3h0.9l-1.5-2.3c0.8-0.1,1.4-0.5,1.4-1.4c0-1-0.6-1.5-1.8-1.5h-2V38h0.8
		V35.8z M232.5,35.1v-1.6h1.1c0.6,0,1.1,0.1,1.1,0.8c0,0.8-0.6,0.9-1.3,0.9H232.5z"/>
	<path fill="#FFFFFF" d="M78.7,75.3V38.9h15.8v25.9C94,75.8,82.8,75.3,82.8,75.3H78.7z"/>
	<path fill="#FFFFFF" d="M75.3,75.3V38.9H59.5v25.9C60,75.8,71.2,75.3,71.2,75.3H75.3z"/>
	<rect x="97.8" y="38.9" fill="#FFFFFF" width="15.8" height="36.4"/>
	<path fill="#FFFFFF" d="M210.8,46.6c0-4.1,3.4-7.5,7.5-7.5c4.2,0,7.5,3.4,7.5,7.5c0,4.1-3.4,7.5-7.5,7.5
		C214.2,54.1,210.8,50.7,210.8,46.6"/>
	<rect x="193.8" y="38.9" fill="#FFFFFF" width="15.7" height="36.4"/>
	<polygon fill="#FFFFFF" points="136.7,75.3 136.7,43.2 131.1,43.2 152,24.4 152,39.3 158.3,39.3 158.3,43.2 152,43.2 152,75.3 	"/>
	<path fill="#FFFFFF" d="M116.9,38.9v36.4H133V49.5c-0.5-10.9-11.8-10.6-11.8-10.6H116.9z"/>
	<path fill="#FFFFFF" d="M172.5,75.5c-9.7,0-17.8-8.3-17.8-18.5s7.5-18.1,17.4-18.6v32.8c3.9,0.4,12.9-0.9,19.3-7.6v4.5
		C188.7,71.3,182.3,75.9,172.5,75.5"/>
	<path fill="#FFFFFF" d="M174.7,38.4v18.8h16.8C191.9,48,187.4,38.7,174.7,38.4"/>
	<polygon fill="#FFFFFF" points="31.9,45.2 36.3,45.2 36.3,24.4 56,24.4 56,75.3 36.3,75.3 36.3,50.2 31.9,50.2 31.9,75.3 
		12.2,75.3 12.2,24.4 31.9,24.4 	"/>
</g>
</svg>
